<svg width="844" height="128" viewBox="0 0 844 128" fill="none" xmlns="http://www.w3.org/2000/svg">
<g>
<path d="M-43 191.269H-16.3102C-8.51039 191.269 -3.26992 189.806 -0.588753 186.88C2.09242 183.954 3.433 179.81 3.433 174.446V5.85142H83.5025V187.977C83.5025 210.651 78.262 226.621 67.7811 235.886C57.5439 245.15 41.0913 249.783 18.4232 249.783H-43V191.269Z" fill="#333232"/>
<path d="M102.846 128C102.846 110.446 106.136 93.8667 112.717 78.2629C119.542 62.659 128.683 49.1276 140.138 37.6686C151.838 25.9657 165.488 16.8229 181.087 10.24C196.687 3.41333 213.261 0 230.811 0C248.36 0 264.935 3.41333 280.534 10.24C296.134 16.8229 309.662 25.9657 321.117 37.6686C332.817 49.1276 341.957 62.659 348.539 78.2629C355.363 93.8667 358.776 110.446 358.776 128C358.776 145.554 355.363 162.133 348.539 177.737C341.957 193.341 332.817 206.994 321.117 218.697C309.662 230.156 296.134 239.299 280.534 246.126C264.935 252.709 248.36 256 230.811 256C213.261 256 196.687 252.709 181.087 246.126C165.488 239.299 151.838 230.156 140.138 218.697C128.683 206.994 119.542 193.341 112.717 177.737C106.136 162.133 102.846 145.554 102.846 128ZM179.625 128C179.625 135.07 180.965 141.775 183.647 148.114C186.328 154.21 189.984 159.573 194.615 164.206C199.246 168.838 204.608 172.495 210.702 175.177C217.039 177.859 223.742 179.2 230.811 179.2C237.879 179.2 244.46 177.859 250.554 175.177C256.891 172.495 262.375 168.838 267.007 164.206C271.638 159.573 275.294 154.21 277.975 148.114C280.656 141.775 281.997 135.07 281.997 128C281.997 120.93 280.656 114.347 277.975 108.251C275.294 101.912 271.638 96.4267 267.007 91.7943C262.375 87.1619 256.891 83.5048 250.554 80.8229C244.46 78.1409 237.879 76.8 230.811 76.8C223.742 76.8 217.039 78.1409 210.702 80.8229C204.608 83.5048 199.246 87.1619 194.615 91.7943C189.984 96.4267 186.328 101.912 183.647 108.251C180.965 114.347 179.625 120.93 179.625 128Z" fill="#333232"/>
<path d="M434.544 144.823L358.861 5.85142H445.512L473.664 57.4171L501.451 5.85142H588.102L512.419 144.823V249.783H434.544V144.823Z" fill="#333232"/>
<path d="M588.07 128C588.07 110.446 591.361 93.8667 597.942 78.2629C604.766 62.659 613.907 49.1276 625.363 37.6686C637.062 25.9657 650.712 16.8229 666.312 10.24C681.911 3.41333 698.486 0 716.035 0C733.585 0 750.159 3.41333 765.759 10.24C781.358 16.8229 794.886 25.9657 806.342 37.6686C818.041 49.1276 827.182 62.659 833.763 78.2629C840.588 93.8667 844 110.446 844 128C844 145.554 840.588 162.133 833.763 177.737C827.182 193.341 818.041 206.994 806.342 218.697C794.886 230.156 781.358 239.299 765.759 246.126C750.159 252.709 733.585 256 716.035 256C698.486 256 681.911 252.709 666.312 246.126C650.712 239.299 637.062 230.156 625.363 218.697C613.907 206.994 604.766 193.341 597.942 177.737C591.361 162.133 588.07 145.554 588.07 128ZM664.849 128C664.849 135.07 666.19 141.775 668.871 148.114C671.552 154.21 675.208 159.573 679.839 164.206C684.47 168.838 689.833 172.495 695.926 175.177C702.264 177.859 708.966 179.2 716.035 179.2C723.104 179.2 729.685 177.859 735.778 175.177C742.116 172.495 747.6 168.838 752.231 164.206C756.862 159.573 760.518 154.21 763.199 148.114C765.88 141.775 767.221 135.07 767.221 128C767.221 120.93 765.88 114.347 763.199 108.251C760.518 101.912 756.862 96.4267 752.231 91.7943C747.6 87.1619 742.116 83.5048 735.778 80.8229C729.685 78.1409 723.104 76.8 716.035 76.8C708.966 76.8 702.264 78.1409 695.926 80.8229C689.833 83.5048 684.47 87.1619 679.839 91.7943C675.208 96.4267 671.552 101.912 668.871 108.251C666.19 114.347 664.849 120.93 664.849 128Z" fill="#333232"/>
</g>
</svg>
